# xmcd
#
# Track frame offsets:
#	150
#	23475
#	33862
#	57252
#	81052
#	98837
#	122952
#	141210
#	161012
#	181935
#	203475
#
# Disc length: 2994 seconds
#
# Revision: 1
# Processed by: cddbd v1.5.1PL0 Copyright (c) Steve Scherf et al.
# Submitted via: CDex 1.50Beta5
#
DISCID=850bb00b
DTITLE=To Be Continued - Bitter Sweet Love
DYEAR=1993
DGENRE=
TTITLE0=32。僕にもたれてた
TTITLE1=どうにかしてるぜ
TTITLE2=こんな恋も悪くない
TTITLE3=HOLIDAY
TTITLE4=君の寝息を頬に感じて
TTITLE5=君とずっと…くらしたい
TTITLE6=If you wish…
TTITLE7=このままじゃ終われない
TTITLE8=愛がまちがえるなんて
TTITLE9=悲しいだけの台詞
TTITLE10=君を忘れない
EXTD=
EXTT0=
EXTT1=
EXTT2=
EXTT3=
EXTT4=
EXTT5=
EXTT6=
EXTT7=
EXTT8=
EXTT9=
EXTT10=
PLAYORDER=
